<svg xmlns="http://www.w3.org/2000/svg" width="250.055" height="276.379" viewBox="0 0 250.055 276.379">
  <g id="Group_211" data-name="Group 211" transform="translate(0.689)">
    <g id="Group_114" data-name="Group 114" transform="translate(0)">
      <g id="Group_113" data-name="Group 113" transform="translate(49.865)">
        <g id="Path_29" data-name="Path 29" transform="translate(-1.97)" fill="#e5bc3a">
          <path d="M 69.04740905761719 127.4672775268555 C 59.08409881591797 127.4672775268555 49.98281097412109 126.4739685058594 41.996337890625 124.5149307250977 C 33.7841911315918 122.5005264282227 26.70633697509766 119.4523468017578 20.95935440063477 115.4550170898438 C 15.0051908493042 111.3135833740234 10.42111873626709 106.1086578369141 7.334464073181152 99.98484039306641 C 4.106845855712891 93.58134460449219 2.470300436019897 86.07740020751953 2.470300436019897 77.68147277832031 L 2.470300436019897 45.35179138183594 C 2.663583993911743 38.77353668212891 4.407252788543701 32.63015365600586 7.652918338775635 27.0918025970459 C 10.83777332305908 21.6572380065918 15.41282749176025 16.89405632019043 21.25100898742676 12.93454742431641 C 27.11486434936523 8.957620620727539 34.13493728637695 5.871420383453369 42.11619186401367 3.761656999588013 C 50.30368041992188 1.597384214401245 59.36466217041016 0.500002384185791 69.04740905761719 0.500002384185791 C 79.08918762207031 0.500002384185791 88.16144561767578 1.336929678916931 96.01215362548828 2.987529754638672 C 104.1965179443359 4.708275318145752 111.2729339599609 7.359620571136475 117.0448303222656 10.86789321899414 C 120.0149917602539 12.67322063446045 122.7014999389648 14.74334812164307 125.0297393798828 17.02072906494141 C 127.4032974243164 19.34247589111328 129.4720306396484 21.94574737548828 131.1784210205078 24.75823783874512 C 132.9196624755859 27.62814712524414 134.3333587646484 30.79780197143555 135.3802642822266 34.17920303344727 C 136.4472808837891 37.62558364868164 137.1634826660156 41.38921356201172 137.5090942382812 45.3663330078125 L 137.5090942382812 79.95098114013672 C 137.5090942382812 84.18105316162109 137.0626525878906 88.19544219970703 136.1821594238281 91.88265991210938 C 135.3273010253906 95.46249389648438 134.0409698486328 98.82733154296875 132.3589172363281 101.8836898803711 C 129.1299438476562 107.7508773803711 124.3321914672852 112.6940231323242 118.0989532470703 116.5758209228516 C 112.186897277832 120.257568359375 104.8887329101562 123.046875 96.40718841552734 124.8662719726562 C 88.36142730712891 126.5921630859375 79.15626525878906 127.4672775268555 69.04740905761719 127.4672775268555 Z" stroke="none"/>
          <path d="M 69.04740905761719 1 C 59.40775299072266 1 50.38979339599609 2.091804504394531 42.24397277832031 4.24505615234375 C 34.31735229492188 6.340362548828125 27.34871673583984 9.403167724609375 21.53164672851562 13.34835052490234 C 15.75555419921875 17.2657470703125 11.23123168945312 21.97476959228516 8.084304809570312 27.3446044921875 C 4.882705688476562 32.80776214599609 3.162124633789062 38.86884307861328 2.970306396484375 45.35959625244141 L 2.970306396484375 77.68147277832031 C 2.970306396484375 85.99851226806641 4.588821411132812 93.42672729492188 7.780960083007812 99.75978088378906 C 10.82977294921875 105.8085632324219 15.35968017578125 110.9510955810547 21.24484252929688 115.044548034668 C 26.94124603271484 119.0066909790039 33.963134765625 122.0296020507812 42.11544799804688 124.0293273925781 C 50.06297302246094 125.9788055419922 59.12419128417969 126.9672775268555 69.04740905761719 126.9672775268555 C 79.12107849121094 126.9672775268555 88.29095458984375 126.0959091186523 96.30232238769531 124.3773803710938 C 104.7272262573242 122.5701446533203 111.9717559814453 119.8025283813477 117.8346252441406 116.1513824462891 C 123.9943542480469 112.3153686523438 128.7336578369141 107.4339294433594 131.9208831787109 101.6426239013672 C 133.581298828125 98.62554931640625 134.8513946533203 95.30274963378906 135.6958312988281 91.76651000976562 C 136.5672454833984 88.11729431152344 137.0090942382812 84.14198303222656 137.0090942382812 79.95098876953125 L 137.0090942382812 45.38796234130859 C 136.6658325195312 41.45426177978516 135.9571990966797 37.73322296142578 134.9026336669922 34.32707214355469 C 133.8678131103516 30.98471069335938 132.4709930419922 27.85254669189453 130.7509613037109 25.01758575439453 C 129.0662689208984 22.24091339111328 127.0237350463867 19.67062377929688 124.6800994873047 17.37816619873047 C 122.3790435791016 15.12734985351562 119.7228088378906 13.08072662353516 116.7851409912109 11.295166015625 C 111.0617523193359 7.81634521484375 104.0381011962891 5.185890197753906 95.90928649902344 3.476821899414062 C 88.09233856201172 1.833328247070312 79.05470275878906 1 69.04740905761719 1 M 69.04740905761719 0 C 108.6074295043945 0 135.1858215332031 12.72679901123047 138.0090942382812 45.3446044921875 L 138.0090942382812 79.95098876953125 C 138.0090942382812 114.7272567749023 108.6074295043945 127.9672775268555 69.04740905761719 127.9672775268555 C 29.48737335205078 127.9672775268555 1.970306396484375 112.457763671875 1.970306396484375 77.68147277832031 L 1.970306396484375 45.3446044921875 C 2.760986328125 18.27376556396484 29.48737335205078 0 69.04740905761719 0 Z" stroke="none" fill="#045fa2"/>
        </g>
      </g>
      <g id="Path_30" data-name="Path 30" transform="translate(61.182 13.408)" fill="#fff">
        <path d="M 55.09258270263672 107.9156036376953 C 47.21309661865234 107.9156036376953 40.01621246337891 107.0754623413086 33.70183944702148 105.4185180664062 C 27.2130126953125 103.7157897949219 21.62102699279785 101.1396560668945 17.08121109008789 97.76167297363281 C 12.37779808044434 94.26193237304688 8.756255149841309 89.86265563964844 6.317212104797363 84.68605804443359 C 3.764597654342651 79.26841735839844 2.470311880111694 72.91853332519531 2.470311880111694 65.81280517578125 L 2.470311880111694 38.42345428466797 C 2.623294591903687 32.8588752746582 4.001808643341064 27.66225624084473 6.567583560943604 22.97858810424805 C 9.084083557128906 18.3848876953125 12.69875431060791 14.35888767242432 17.31118392944336 11.01244449615479 C 21.94439697265625 7.65091609954834 27.49172592163086 5.042116165161133 33.79904174804688 3.258516073226929 C 40.27194213867188 1.428101778030396 47.43611145019531 0.500001847743988 55.09258270263672 0.500001847743988 C 63.03572463989258 0.500001847743988 70.21106719970703 1.208001852035522 76.41929626464844 2.604344606399536 C 82.88685607910156 4.059001922607422 88.47808074951172 6.299844741821289 93.03765106201172 9.264616012573242 C 97.77507019042969 12.34503078460693 101.5310821533203 16.2942008972168 104.2013854980469 21.00244522094727 C 106.9813690185547 25.90408134460449 108.6655502319336 31.76939392089844 109.2073822021484 38.43680572509766 L 109.2073822021484 67.73554229736328 C 109.2073822021484 74.79651641845703 107.8372268676758 81.04006958007812 105.1349716186523 86.29276275634766 C 102.5840835571289 91.25121307373047 98.79449462890625 95.42832946777344 93.87146759033203 98.70807647705078 C 89.20098114013672 101.8195724487305 83.43429565429688 104.177131652832 76.73161315917969 105.7152481079102 C 70.36907958984375 107.1752853393555 63.08866882324219 107.9156036376953 55.09258270263672 107.9156036376953 Z" stroke="none"/>
        <path d="M 55.09258270263672 1 C 47.48212432861328 1 40.36370849609375 1.921760559082031 33.93509674072266 3.739646911621094 C 27.68455505371094 5.507186889648438 22.19025421142578 8.09027099609375 17.60481262207031 11.41714477539062 C 13.05269622802734 14.71981811523438 9.486785888671875 18.69047546386719 7.006095886230469 23.21880340576172 C 4.479721069335938 27.83053588867188 3.121910095214844 32.94809722900391 2.970298767089844 38.43036651611328 L 2.970298767089844 65.81280517578125 C 2.970298767089844 72.84428405761719 4.248542785644531 79.12247467041016 6.769508361816406 84.47294616699219 C 9.173141479492188 89.57438659667969 12.74292755126953 93.910400390625 17.37968444824219 97.36053466796875 C 21.86788177490234 100.7001190185547 27.40213775634766 103.2484893798828 33.82874298095703 104.9348907470703 C 40.10172271728516 106.5809707641602 47.25591278076172 107.4156036376953 55.09258270263672 107.4156036376953 C 63.05108261108398 107.4156036376953 70.29386901855469 106.679557800293 76.61976623535156 105.2279052734375 C 83.26326751708984 103.7033767700195 88.97429656982422 101.3697891235352 93.59425354003906 98.29194641113281 C 98.44559478759766 95.05995941162109 102.1788558959961 90.94588470458984 104.6903381347656 86.06401824951172 C 107.355842590332 80.88277435302734 108.7073669433594 74.7161865234375 108.7073669433594 67.73554992675781 L 108.7073669433594 38.45713043212891 C 108.1697082519531 31.87126922607422 106.507438659668 26.08197784423828 103.7664566040039 21.24911499023438 C 101.1360702514648 16.61124420166016 97.43468475341797 12.72010040283203 92.76509857177734 9.683799743652344 C 88.25545501708984 6.751502990722656 82.71900939941406 4.533744812011719 76.30958557128906 3.092155456542969 C 70.13731384277344 1.703903198242188 62.99888229370117 1 55.09258270263672 1 M 55.09258270263672 0 C 86.42247009277344 0 107.4714508056641 10.78233337402344 109.7073669433594 38.41655731201172 L 109.7073669433594 67.73554992675781 C 109.7073669433594 97.198486328125 86.42247009277344 108.4156036376953 55.09258270263672 108.4156036376953 C 23.7626953125 108.4156036376953 1.970298767089844 95.27574157714844 1.970298767089844 65.81280517578125 L 1.970298767089844 38.41655731201172 C 2.59649658203125 15.48177337646484 23.7626953125 0 55.09258270263672 0 Z" stroke="none" fill="#045fa2"/>
      </g>
      <path id="Path_12" data-name="Path 12" d="M184.37,204.562,101.2,159.733,0,165.373,26.337,41.465,135.155,0l75.552,80.654Z" transform="matrix(-0.978, 0.208, -0.208, -0.978, 248.633, 231.884)" fill="#045fa2" stroke="#045fa2" stroke-width="1"/>
    </g>
    <g id="Group_112" data-name="Group 112" transform="translate(99.707 122.843)">
      <g id="Ellipse_1" data-name="Ellipse 1" transform="translate(0 0)" fill="#e8be3b" stroke="#e8be3b" stroke-width="1">
        <ellipse cx="16.582" cy="13.473" rx="16.582" ry="13.473" stroke="none"/>
        <ellipse cx="16.582" cy="13.473" rx="16.082" ry="12.973" fill="none"/>
      </g>
      <g id="Path_28" data-name="Path 28" transform="translate(2.572 22.464)" fill="#e5bc3a">
        <path d="M 27.07768058776855 27.8237419128418 L 0.6315601468086243 27.8237419128418 L 6.861405849456787 1.395202279090881 L 20.06512069702148 1.395202279090881 L 27.07768058776855 27.8237419128418 Z" stroke="none"/>
        <path d="M 7.257246017456055 1.89520263671875 L 1.263124465942383 27.3237419128418 L 26.42771339416504 27.3237419128418 L 19.68049430847168 1.89520263671875 L 7.257246017456055 1.89520263671875 M 6.465566635131836 0.89520263671875 L 20.44975662231445 0.89520263671875 L 27.7276554107666 28.3237419128418 L -3.814697265625e-06 28.3237419128418 L 6.465566635131836 0.89520263671875 Z" stroke="none" fill="#e8be3b"/>
      </g>
    </g>
  </g>
</svg>
