<svg xmlns="http://www.w3.org/2000/svg" width="259.706" height="287.08" viewBox="0 0 259.706 287.08">
  <g id="Group_211" data-name="Group 211" transform="translate(0.689)">
    <g id="Group_114" data-name="Group 114" transform="translate(0)">
      <g id="Group_113" data-name="Group 113" transform="translate(51.8)">
        <g id="Path_29" data-name="Path 29" transform="translate(-1.97)" fill="#e5bc3a">
          <path d="M 71.6510009765625 132.4343566894531 C 61.29940032958984 132.4343566894531 51.84329223632812 131.4023132324219 43.54532623291016 129.3668518066406 C 35.01209259033203 127.2737045288086 27.65732765197754 124.1062164306641 21.68532752990723 119.9523620605469 C 15.49738216400146 115.648307800293 10.73327350616455 110.2389221191406 7.525346279144287 103.8744888305664 C 4.171073436737061 97.21970367431641 2.470309734344482 89.42157745361328 2.470309734344482 80.69668579101562 L 2.470309734344482 47.11184310913086 C 2.671199083328247 40.27496719360352 4.483436584472656 33.88972473144531 7.856746196746826 28.13356018066406 C 11.16669178009033 22.48554229736328 15.92129135131836 17.53536033630371 21.98849105834961 13.42054176330566 C 28.08176422119141 9.28801441192627 35.37630844116211 6.081105709075928 43.66949081420898 3.88890552520752 C 52.17639923095703 1.640196561813354 61.59074783325195 0.4999965131282806 71.6510009765625 0.4999965131282806 C 82.08389282226562 0.4999965131282806 91.50962066650391 1.369542002677917 99.66636657714844 3.084487438201904 C 108.1705474853516 4.872469425201416 115.5236740112305 7.627542018890381 121.5214920043945 11.27314186096191 C 124.6082000732422 13.14930534362793 127.400146484375 15.30068778991699 129.8197937011719 17.66750526428223 C 132.2866516113281 20.08050537109375 134.4366912841797 22.78610610961914 136.2101593017578 25.70915985107422 C 138.0198211669922 28.69181442260742 139.4890441894531 31.98596000671387 140.5770416259766 35.5001220703125 C 141.6859436035156 39.08180999755859 142.4302368164062 42.99323654174805 142.7893676757812 47.12638092041016 L 142.7893676757812 83.05429077148438 C 142.7893676757812 87.45005035400391 142.3253936767578 91.62178039550781 141.4103851318359 95.45359802246094 C 140.5219421386719 99.17408752441406 139.18505859375 102.6711578369141 137.4368743896484 105.8476867675781 C 134.0809631347656 111.9455413818359 129.0947265625 117.0829620361328 122.6166915893555 121.1171951293945 C 116.473258972168 124.9430541992188 108.8897476196289 127.8414840698242 100.0767974853516 129.7319641113281 C 91.71739959716797 131.525146484375 82.15357971191406 132.4343566894531 71.6510009765625 132.4343566894531 Z" stroke="none"/>
          <path d="M 71.6510009765625 1 C 61.63385772705078 1 52.26251220703125 2.134597778320312 43.79727172851562 4.372283935546875 C 35.55874633789062 6.550071716308594 28.31563568115234 9.733558654785156 22.26914978027344 13.83434295654297 C 16.2640380859375 17.90706634521484 11.56015014648438 22.80307006835938 8.28814697265625 28.38636016845703 C 4.958740234375 34.06759643554688 3.169601440429688 40.36991119384766 2.970306396484375 47.11965179443359 L 2.970306396484375 80.69668579101562 C 2.970306396484375 89.34268188476562 4.653076171875 97.06510925292969 7.971832275390625 103.6494293212891 C 11.14195251464844 109.938835144043 15.85189819335938 115.2858123779297 21.97084045410156 119.5418853759766 C 27.89227294921875 123.6605606079102 35.19105529785156 126.8027801513672 43.66443634033203 128.8812561035156 C 51.92345428466797 130.9071350097656 61.33949279785156 131.9343566894531 71.6510009765625 131.9343566894531 C 82.11840057373047 131.9343566894531 91.64692687988281 131.0288848876953 99.971923828125 129.2430725097656 C 108.7282409667969 127.3647384643555 116.2581100463867 124.4880142211914 122.3523635864258 120.6927642822266 C 125.5098190307617 118.726448059082 128.3328704833984 116.4791793823242 130.7431640625 114.0133819580078 C 133.2168884277344 111.482666015625 135.3215942382812 108.6542358398438 136.9988403320312 105.6066131591797 C 138.7254028320312 102.4693756103516 140.0460357666016 99.01432800292969 140.9240570068359 95.33744812011719 C 141.8300018310547 91.54365539550781 142.2893676757812 87.41099548339844 142.2893676757812 83.05429077148438 L 142.2893676757812 47.14800262451172 C 141.9325866699219 43.05831909179688 141.1958465576172 39.18943023681641 140.0993957519531 35.64799499511719 C 139.0234985351562 32.17288970947266 137.5711212158203 28.91622924804688 135.7826843261719 25.968505859375 C 134.0309295654297 23.08126831054688 131.9070892333984 20.40866851806641 129.4701690673828 18.02494049072266 C 127.0776901245117 15.68470764160156 124.3160018920898 13.55683135986328 121.2617797851562 11.70041656494141 C 115.3124923706055 8.08428955078125 108.0121307373047 5.350105285644531 99.56349182128906 3.573776245117188 C 91.44050598144531 1.865936279296875 82.04937744140625 1 71.6510009765625 1 M 71.6510009765625 0 C 112.7465057373047 0 140.3565216064453 13.22079467773438 143.2893676757812 47.10465240478516 L 143.2893676757812 83.05429077148438 C 143.2893676757812 119.1804122924805 112.7465057373047 132.9343566894531 71.6510009765625 132.9343566894531 C 30.55545806884766 132.9343566894531 1.970306396484375 116.8228149414062 1.970306396484375 80.69668579101562 L 1.970306396484375 47.10465240478516 C 2.79168701171875 18.98307037353516 30.55545806884766 0 71.6510009765625 0 Z" stroke="none" fill="#039cdc"/>
        </g>
      </g>
      <g id="Path_30" data-name="Path 30" transform="translate(63.634 13.928)" fill="#fff">
        <path d="M 57.15450668334961 112.1237640380859 C 48.96752166748047 112.1237640380859 41.4896354675293 111.2507934570312 34.92856597900391 109.5291213989258 C 28.18545150756836 107.7596664428711 22.37417984008789 105.0824661254883 17.65616607666016 101.5718688964844 C 12.76758003234863 97.93436431884766 9.00346565246582 93.36188507080078 6.468379974365234 87.98142242431641 C 3.815451383590698 82.35088348388672 2.470308542251587 75.75175476074219 2.470308542251587 68.36732482910156 L 2.470308542251587 39.91460800170898 C 2.629169702529907 34.13051986694336 4.061985492706299 28.72966957092285 6.729008674621582 23.86118125915527 C 9.344565391540527 19.08663940429688 13.10143661499023 14.90222454071045 17.89523696899414 11.42418193817139 C 22.71015167236328 7.930824756622314 28.4748363494873 5.219767570495605 35.02919387817383 3.366324901580811 C 41.75503540039062 1.464367747306824 49.19906616210938 0.4999963045120239 57.15450668334961 0.4999963045120239 C 65.40739440917969 0.4999963045120239 72.86267852783203 1.235639214515686 79.31326293945312 2.686481952667236 C 86.03412628173828 4.198124885559082 91.84449768066406 6.526839256286621 96.58297729492188 9.607953071594238 C 101.5069122314453 12.80963897705078 105.4108352661133 16.91435432434082 108.1863403320312 21.80808258056641 C 111.0756149291992 26.90244483947754 112.8260803222656 32.9989013671875 113.3891677856445 39.92795562744141 L 113.3891677856445 70.36469268798828 C 113.3891677856445 77.70286560058594 111.9651107788086 84.19174194335938 109.1565399169922 89.65109252929688 C 106.5051116943359 94.80498504638672 102.5662384033203 99.14668273925781 97.44934844970703 102.5555801391602 C 92.59561157226562 105.7891693115234 86.60293579101562 108.2391510009766 79.63777923583984 109.8375091552734 C 73.02687835693359 111.3545532226562 65.46240997314453 112.1237640380859 57.15450668334961 112.1237640380859 Z" stroke="none"/>
        <path d="M 57.15450668334961 1.000007629394531 C 49.24507904052734 1.000007629394531 41.84681701660156 1.958023071289062 35.16524505615234 3.847465515136719 C 28.66767883300781 5.684852600097656 22.95600128173828 8.370193481445312 18.18885803222656 11.82888031005859 C 13.45538330078125 15.26316070556641 9.747261047363281 19.39221954345703 7.167503356933594 24.10140228271484 C 4.540084838867188 28.89759826660156 3.127975463867188 34.22030639648438 2.970306396484375 39.92157745361328 L 2.970306396484375 68.36732482910156 C 2.970306396484375 75.67751312255859 4.299400329589844 82.20494079589844 6.920677185058594 87.768310546875 C 9.42034912109375 93.0736083984375 13.13272094726562 97.58282470703125 17.95462799072266 101.1707305908203 C 22.62103271484375 104.6429138183594 28.37458038330078 107.2923583984375 35.05545806884766 109.0454788208008 C 41.57513427734375 110.7562942504883 49.01032257080078 111.6237564086914 57.15450668334961 111.6237564086914 C 65.42482757568359 111.6237564086914 72.95167541503906 110.8588027954102 79.52595520019531 109.3501586914062 C 86.43190765380859 107.7654037475586 92.36893463134766 105.3393707275391 97.17213439941406 102.1394500732422 C 102.2173538208008 98.77831268310547 106.0998916625977 94.49964904785156 108.7119216918945 89.42234802246094 C 111.4837341308594 84.03445434570312 112.8891677856445 77.62252807617188 112.8891677856445 70.36470031738281 L 112.8891677856445 39.94821166992188 C 112.3302612304688 33.10053253173828 110.6017608642578 27.0804443359375 107.7514114379883 22.05474090576172 C 105.0158309936523 17.23139190673828 101.1665191650391 13.18471527099609 96.3104248046875 10.02713012695312 C 91.62187194824219 6.978500366210938 85.86628723144531 4.672866821289062 79.20355224609375 3.17431640625 C 72.78892517089844 1.731544494628906 65.37055206298828 1.000007629394531 57.15450668334961 1.000007629394531 M 57.15450668334961 7.62939453125e-06 C 89.70046234130859 7.62939453125e-06 111.5664443969727 11.20083618164062 113.8891677856445 39.90769958496094 L 113.8891677856445 70.36470031738281 C 113.8891677856445 100.9712524414062 89.70046234130859 112.6237564086914 57.15450668334961 112.6237564086914 C 24.60855102539062 112.6237564086914 1.970306396484375 98.97388458251953 1.970306396484375 68.36732482910156 L 1.970306396484375 39.90769958496094 C 2.620796203613281 16.08271026611328 24.60855102539062 7.62939453125e-06 57.15450668334961 7.62939453125e-06 Z" stroke="none" fill="#039cdc"/>
      </g>
      <path id="Path_12" data-name="Path 12" d="M191.526,212.5l-86.4-46.568L0,171.792,27.36,43.075,140.4,0l78.485,83.785Z" transform="matrix(-0.978, 0.208, -0.208, -0.978, 258.284, 240.884)" fill="#045fa2" stroke="#039cdc" stroke-width="1"/>
    </g>
    <g id="Group_112" data-name="Group 112" transform="translate(103.577 127.611)">
      <g id="Ellipse_1" data-name="Ellipse 1" transform="translate(0 0)" fill="#e8be3b" stroke="#e8be3b" stroke-width="1">
        <ellipse cx="17.226" cy="13.996" rx="17.226" ry="13.996" stroke="none"/>
        <ellipse cx="17.226" cy="13.996" rx="16.726" ry="13.496" fill="none"/>
      </g>
      <g id="Path_28" data-name="Path 28" transform="translate(2.672 23.37)" fill="#e5bc3a">
        <path d="M 28.15392112731934 28.88838195800781 L 0.6315603852272034 28.88838195800781 L 7.112366199493408 1.395201325416565 L 20.85887145996094 1.395201325416565 L 28.15392112731934 28.88838195800781 Z" stroke="none"/>
        <path d="M 7.508195877075195 1.895200729370117 L 1.263124465942383 28.38838195800781 L 27.50395393371582 28.38838195800781 L 20.4742431640625 1.895200729370117 L 7.508195877075195 1.895200729370117 M 6.716516494750977 0.8952007293701172 L 21.24350547790527 0.8952007293701172 L 28.80389595031738 29.38838195800781 L -3.814697265625e-06 29.38838195800781 L 6.716516494750977 0.8952007293701172 Z" stroke="none" fill="#e8be3b"/>
      </g>
    </g>
  </g>
</svg>
