<svg xmlns="http://www.w3.org/2000/svg" width="204" height="237" viewBox="0 0 204 237">
  <g id="Group_244" data-name="Group 244" transform="translate(0 -0.046)">
    <g id="Group_104" data-name="Group 104" transform="translate(0 0.046)">
      <g id="Group_103" data-name="Group 103" transform="translate(0 0)">
        <g id="Rectangle_38" data-name="Rectangle 38" fill="#fcce2c" stroke="#000" stroke-width="3">
          <rect width="204" height="237" stroke="none"/>
          <rect x="1.5" y="1.5" width="201" height="234" fill="none"/>
        </g>
        <g id="Rectangle_39" data-name="Rectangle 39" transform="translate(45 23)" fill="#045fa2" stroke="#000" stroke-width="3">
          <rect width="109" height="13" stroke="none"/>
          <rect x="1.5" y="1.5" width="106" height="10" fill="none"/>
        </g>
        <line id="Line_19" data-name="Line 19" x2="65.117" transform="translate(39.781 75.633)" fill="none" stroke="#000" stroke-width="6"/>
        <line id="Line_20" data-name="Line 20" x2="65.117" transform="translate(39.781 112.156)" fill="none" stroke="#000" stroke-width="6"/>
        <line id="Line_21" data-name="Line 21" x2="65.117" transform="translate(39.781 151.998)" fill="none" stroke="#000" stroke-width="6"/>
        <line id="Line_22" data-name="Line 22" x2="65.117" transform="translate(39.781 193.686)" fill="none" stroke="#000" stroke-width="6"/>
        <g id="Rectangle_40" data-name="Rectangle 40" transform="translate(131 52)" fill="#045fa2" stroke="#000" stroke-width="3">
          <rect width="28" height="34" stroke="none"/>
          <rect x="1.5" y="1.5" width="25" height="31" fill="none"/>
        </g>
        <g id="Rectangle_41" data-name="Rectangle 41" transform="translate(131 94)" fill="#045fa2" stroke="#000" stroke-width="3">
          <rect width="47" height="25" stroke="none"/>
          <rect x="1.5" y="1.5" width="44" height="22" fill="none"/>
        </g>
        <g id="Rectangle_42" data-name="Rectangle 42" transform="translate(131 137)" fill="#045fa2" stroke="#000" stroke-width="3">
          <rect width="28" height="28" stroke="none"/>
          <rect x="1.5" y="1.5" width="25" height="25" fill="none"/>
        </g>
        <g id="Rectangle_43" data-name="Rectangle 43" transform="translate(131 177)" fill="#045fa2" stroke="#000" stroke-width="3">
          <rect width="28" height="33" stroke="none"/>
          <rect x="1.5" y="1.5" width="25" height="30" fill="none"/>
        </g>
      </g>
    </g>
    <g id="Group_178" data-name="Group 178" transform="translate(162.743 123.351) rotate(-42)">
      <g id="Polygon_3" data-name="Polygon 3" transform="translate(0 0)" fill="#045fa2">
        <path d="M 19.61585426330566 20.8519172668457 L 3.236063718795776 20.8519172668457 L 11.42595863342285 4.472126960754395 L 19.61585426330566 20.8519172668457 Z" stroke="none"/>
        <path d="M 11.42595863342285 8.944266319274902 L 6.472133636474609 18.8519172668457 L 16.37978363037109 18.8519172668457 L 11.42595863342285 8.944266319274902 M 11.42595863342285 -3.814697265625e-06 L 22.85191917419434 22.8519172668457 L -1.9073486328125e-06 22.8519172668457 L 11.42595863342285 -3.814697265625e-06 Z" stroke="none"/>
      </g>
      <line id="Line_18" data-name="Line 18" y2="18.282" transform="translate(11.426 20.567)" fill="none" stroke="#000" stroke-width="4"/>
    </g>
  </g>
</svg>
