<svg xmlns="http://www.w3.org/2000/svg" width="778.213" height="565.802" viewBox="0 0 778.213 565.802">
  <g id="Group_111" data-name="Group 111" transform="translate(-308.493 -597.026) rotate(1)">
    <g id="Group_109" data-name="Group 109" transform="translate(323.754 587.814)">
      <path id="Path_20" data-name="Path 20" d="M615.292,624.484l-7,9.471s-68.441-14.734-83.07-9.471c-13.957,14.78-31.742,41.023-31.742,41.023l-7.255-20.894,28.253-31.541S537.154,597.209,615.292,624.484Z" transform="translate(159.521 -526.323)" fill="#e8be3b"/>
      <g id="Rectangle_44" data-name="Rectangle 44" transform="matrix(0.966, -0.259, 0.259, 0.966, 533.539, 58.594)" fill="#045fa2" stroke="#fcce2c" stroke-width="3">
        <rect width="95.39" height="162.957" rx="47.695" stroke="none"/>
        <rect x="1.5" y="1.5" width="92.39" height="159.957" rx="46.195" fill="none"/>
      </g>
      <path id="Path_12" data-name="Path 12" d="M125.514,282.642,54.426,357.977,21.785,295.045,0,253.074,18.883,75.7,92.533,0,144.4,105.283Z" transform="translate(47.011 253.076) rotate(-109)" fill="#045fa2" stroke="#fcce2c" stroke-width="3"/>
      <path id="Path_12-2" data-name="Path 12" d="M193.933,282.642l-84.985,69.517-45.19-74.53L0,253.074,29.176,75.7,142.973,0l80.136,105.283Z" transform="matrix(-0.978, -0.208, 0.208, -0.978, 354.406, 561)" fill="#045fa2" stroke="#fcce2c" stroke-width="3"/>
      <path id="Path_12-3" data-name="Path 12" d="M191.466,158.714l-90.754,55.058L0,156.375l1.64-105.2L89.261,0,191.3,68.189Z" transform="matrix(0.951, -0.309, 0.309, 0.951, 318.349, 108.965)" fill="#fcce2c" stroke="#fcce2c" stroke-width="3"/>
      <path id="Path_21" data-name="Path 21" d="M-.254,13.111,44.367-6.607,165.493,135.344,151.442,169.19Z" transform="translate(222.8 227.512)" fill="#e8be3b"/>
      <path id="Path_22" data-name="Path 22" d="M1.419,53.159,28.149-6.475,178.008,148.088l-20.226,45.151L7.816,58.836Z" transform="translate(184.057 283.547)" fill="#e8be3b"/>
      <path id="Path_26" data-name="Path 26" d="M8.145-6.475l148.45,82.9L66.8,113.766Z" transform="translate(148.417 418.682)" fill="#e8be3b"/>
    </g>
    <path id="Path_23" data-name="Path 23" d="M457,661.192l30.383,3.268s15.2,56.578,24.133,72.734c1.649,23.226,0,54.265,0,54.265S532.593,750,533.7,733.4c-1.1,1.283-7.832-22.708-7.832-22.708s-8.023-36.833-27.331-61.706c-32.07-1.744-30.207-3.82-30.207-3.82Z" transform="translate(396.349 170.599)" fill="#e8be3b"/>
    <path id="Path_24" data-name="Path 24" d="M457.005,659.907l32.314,3.009s16.322,59.155,25.915,76.046c1.771,24.284,0,56.737,0,56.737s22.633-43.344,23.817-60.7c-1.176,1.341-8.552-23.31-8.41-23.742s-8.615-38.509-29.349-64.514c-34.436-1.824-31.49,0-31.49,0Z" transform="translate(360.595 212.61)" fill="#e8be3b"/>
    <path id="Path_27" data-name="Path 27" d="M457.221,665.006h31.46s16.32,59.156,25.913,76.046c1.771,24.284,0,56.737,0,56.737s22.634-43.345,23.817-60.7c-1.176,1.341-8.552-23.31-8.409-23.742s-8.615-38.51-29.348-64.514c-34.436-1.825-35.743-3.6-35.743-3.6Z" transform="translate(269.82 286.036)" fill="#e8be3b"/>
  </g>
</svg>
