<svg xmlns="http://www.w3.org/2000/svg" width="263.787" height="291.606" viewBox="0 0 263.787 291.606">
  <g id="Group_211" data-name="Group 211" transform="translate(0.689)">
    <g id="Group_114" data-name="Group 114" transform="translate(0)">
      <g id="Group_113" data-name="Group 113" transform="translate(52.619)">
        <g id="Path_29" data-name="Path 29" transform="translate(-1.97)" fill="#e5bc3a">
          <path d="M 72.75213623046875 134.5350036621094 C 62.23631286621094 134.5350036621094 52.63013458251953 133.486572265625 44.20044326782227 131.4188079833984 C 35.53142547607422 129.2923583984375 28.05955123901367 126.0744094848633 21.99236869812012 121.8543548583984 C 15.70555114746094 117.4815368652344 10.86529636383057 111.9857025146484 7.606078147888184 105.5195007324219 C 4.198241710662842 98.75844573974609 2.470314502716064 90.83588409423828 2.470314502716064 81.97188568115234 L 2.470314502716064 47.856201171875 C 2.674421548843384 40.90995407104492 4.515660762786865 34.42243194580078 7.94295072555542 28.57413864135742 C 11.30580520629883 22.83584785461426 16.13633346557617 17.80659294128418 22.30038642883301 13.62608337402344 C 28.49069595336914 9.427756309509277 35.90133285522461 6.169810771942139 44.32642364501953 3.94271993637085 C 52.96842193603516 1.658301830291748 62.53220367431641 0.5000109076499939 72.75213623046875 0.5000109076499939 C 83.35044097900391 0.5000109076499939 92.9256591796875 1.383356332778931 101.2118453979492 3.125501871109009 C 109.8512954711914 4.941938400268555 117.3214569091797 7.740865230560303 123.4148254394531 11.44453811645508 C 126.5508270263672 13.35066509246826 129.3873748779297 15.53641128540039 131.845703125 17.94106483459473 C 134.3520202636719 20.39264678955078 136.5364379882812 23.14151954650879 138.3382720947266 26.11132049560547 C 140.1768646240234 29.14166641235352 141.6695861816406 32.48846435546875 142.7749633789062 36.05877304077148 C 143.9015655517578 39.69760131835938 144.6577758789062 43.67171859741211 145.0226287841797 47.87074279785156 L 145.0226287841797 84.36673736572266 C 145.0226287841797 88.83259582519531 144.5512542724609 93.07084655761719 143.6216430664062 96.96381378173828 C 142.718994140625 100.7437744140625 141.3607177734375 104.2967910766602 139.5845642089844 107.5241165161133 C 137.8583374023438 110.660774230957 135.6924285888672 113.5715408325195 133.1470031738281 116.1756134033203 C 130.6697998046875 118.709846496582 127.7697677612305 121.0186309814453 124.5274200439453 123.0378265380859 C 118.2861328125 126.9246292114258 110.581916809082 129.8691864013672 101.6288070678711 131.7897338867188 C 93.13677215576172 133.6113586425781 83.42124176025391 134.5350036621094 72.75213623046875 134.5350036621094 Z" stroke="none"/>
          <path d="M 72.75212097167969 1 C 62.57530212402344 1 53.05451965332031 2.152725219726562 44.45420074462891 4.426116943359375 C 36.08376312255859 6.638748168945312 28.72456359863281 9.873283386230469 22.58103942871094 14.03987884521484 C 16.47906494140625 18.17828369140625 11.69923400878906 23.15338134765625 8.374343872070312 28.82694244384766 C 4.990951538085938 34.60026550292969 3.172821044921875 41.00487518310547 2.970306396484375 47.86395263671875 L 2.970306396484375 81.97187805175781 C 2.970306396484375 90.75700378417969 4.680221557617188 98.60384368896484 8.052566528320312 105.2944641113281 C 11.27395629882812 111.6856002807617 16.06004333496094 117.1190643310547 22.27786254882812 121.4438781738281 C 28.29445648193359 125.6287384033203 35.71035766601562 128.8214263916016 44.31954193115234 130.9331970214844 C 52.71029663085938 132.9914093017578 62.27639770507812 134.0350036621094 72.75212097167969 134.0350036621094 C 83.38606262207031 134.0350036621094 93.0662841796875 133.1150970458984 101.5239181518555 131.3008422851562 C 110.4203948974609 129.3924407958984 118.0709609985352 126.4695587158203 124.2630996704102 122.6133804321289 C 127.4714965820312 120.6153411865234 130.3401794433594 118.3317642211914 132.7894439697266 115.8260803222656 C 135.3032531738281 113.2543640136719 137.4420776367188 110.3800811767578 139.1465148925781 107.2830429077148 C 140.9010620117188 104.0950012207031 142.2430725097656 100.5840225219727 143.1352996826172 96.84765625 C 144.0558624267578 92.99270629882812 144.5226135253906 88.79350280761719 144.5226135253906 84.36672210693359 L 144.5226135253906 47.8924560546875 C 144.1601409912109 43.73673248291016 143.4114990234375 39.80533599853516 142.2973327636719 36.2066650390625 C 141.2040252685547 32.67538452148438 139.7281799316406 29.36608123779297 137.9107971191406 26.37068176269531 C 136.1306762695312 23.43668365478516 133.9724426269531 20.72080230712891 131.4960632324219 18.29850006103516 C 129.0649261474609 15.92044067382812 126.2586212158203 13.7581787109375 123.1551208496094 11.87180328369141 C 117.1102600097656 8.197601318359375 109.6928558349609 5.419540405273438 101.1089630126953 3.61480712890625 C 92.85653686523438 1.879745483398438 83.31591796875 1 72.75212097167969 1 M 72.75212097167969 0 C 114.4970550537109 0 142.5433959960938 13.42971801757812 145.5226135253906 47.84902191162109 L 145.5226135253906 84.36672210693359 C 145.5226135253906 121.0637435913086 114.4970550537109 135.0350036621094 72.75212097167969 135.0350036621094 C 31.00715637207031 135.0350036621094 1.970306396484375 118.6688995361328 1.970306396484375 81.97187805175781 L 1.970306396484375 47.84902191162109 C 2.804656982421875 19.28304290771484 31.00715637207031 0 72.75212097167969 0 Z" stroke="none" fill="#039cdc"/>
        </g>
      </g>
      <g id="Path_30" data-name="Path 30" transform="translate(64.67 14.148)" fill="#fff">
        <path d="M 58.02656555175781 113.9034805297852 C 49.70953750610352 113.9034805297852 42.11279296875 113.0166397094727 35.44739532470703 111.2675704956055 C 28.59673690795898 109.4698944091797 22.69270896911621 106.7499542236328 17.89932250976562 103.1832809448242 C 12.9324369430542 99.48751068115234 9.108022689819336 94.84176635742188 6.532308578491211 89.37509918212891 C 3.836965799331665 83.65452575683594 2.470308780670166 76.94996643066406 2.470308780670166 69.44768524169922 L 2.470308780670166 40.54523468017578 C 2.631712675094604 34.66848754882812 4.087501525878906 29.18097114562988 6.797280311584473 24.23443984985352 C 9.454737663269043 19.3834114074707 13.27173709869385 15.13201141357422 18.14225196838379 11.59831142425537 C 23.03400802612305 8.049211502075195 28.8906364440918 5.294911861419678 35.5494499206543 3.411911725997925 C 42.38229370117188 1.479711651802063 49.94467926025391 0.4999974071979523 58.02656555175781 0.4999974071979523 C 66.41045379638672 0.4999974071979523 73.98413848876953 1.247326016426086 80.53722381591797 2.72122597694397 C 87.36519622802734 4.256954669952393 93.26824951171875 6.622840404510498 98.08242034912109 9.753154754638672 C 103.0852203369141 13.00614070892334 107.0517120361328 17.17662620544434 109.871696472168 22.14881134033203 C 112.8071975708008 27.32468032836914 114.5856781005859 33.51889419555664 115.1577682495117 40.55858612060547 L 115.1577682495117 71.47662353515625 C 115.1577682495117 78.93202972412109 113.7109069824219 85.524658203125 110.8573837280273 91.07139587402344 C 108.1634216308594 96.30793762207031 104.1614227294922 100.7192535400391 98.96255493164062 104.1827697753906 C 94.03131103515625 107.4679794311523 87.94305419921875 109.9570693969727 80.86690521240234 111.5808868408203 C 74.15095520019531 113.1220550537109 66.46635437011719 113.9034805297852 58.02656555175781 113.9034805297852 Z" stroke="none"/>
        <path d="M 58.02657699584961 1 C 49.99069976806641 1 42.47408294677734 1.973358154296875 35.68551635742188 3.893051147460938 C 29.08348083496094 5.759986877441406 23.27985382080078 8.488571166992188 18.43586730957031 12.00301361083984 C 13.62568664550781 15.49294281005859 9.857437133789062 19.68900299072266 7.23577880859375 24.47466278076172 C 4.565620422363281 29.34886932373047 3.130538940429688 34.75832366943359 2.970298767089844 40.55221557617188 L 2.970298767089844 69.44767761230469 C 2.970298767089844 76.87572479248047 4.320915222167969 83.50857543945312 6.984603881835938 89.1619873046875 C 9.524917602539062 94.55348205566406 13.29756164550781 99.13597106933594 18.19779205322266 102.7821426391602 C 22.93955993652344 106.3104019165039 28.78586578369141 109.0026016235352 35.57430267333984 110.7839431762695 C 42.19829559326172 112.5221405029297 49.75234222412109 113.4034805297852 58.02657699584961 113.4034805297852 C 66.42877197265625 113.4034805297852 74.07574462890625 112.6263122558594 80.75508117675781 111.0935592651367 C 87.77201843261719 109.4833221435547 93.80464172363281 107.0182037353516 98.68533325195312 103.7666473388672 C 103.8125305175781 100.3508758544922 107.7582092285156 96.00261688232422 110.4127578735352 90.84266662597656 C 113.2295303344727 85.36735534667969 114.6577606201172 78.85169982910156 114.6577606201172 71.47663116455078 L 114.6577606201172 40.57884979248047 C 114.0899505615234 33.62010955810547 112.3334655761719 27.50290679931641 109.4367752075195 22.39546203613281 C 108.0331878662109 19.92067718505859 106.3318862915039 17.63031005859375 104.3801422119141 15.58797454833984 C 102.4650497436523 13.583984375 100.2544860839844 11.76190948486328 97.80986785888672 10.17234039306641 C 93.04563903808594 7.074493408203125 87.19737243652344 4.731712341308594 80.42751312255859 3.20904541015625 C 73.91037750244141 1.743232727050781 66.37361145019531 1 58.02657699584961 1 M 58.02657699584961 0 C 91.08682250976562 0 113.2983627319336 11.37783050537109 115.6577606201172 40.53833770751953 L 115.6577606201172 71.47663116455078 C 115.6577606201172 102.5668334960938 91.08682250976562 114.4034805297852 58.02657699584961 114.4034805297852 C 24.96630096435547 114.4034805297852 1.970298767089844 100.5378952026367 1.970298767089844 69.44767761230469 L 1.970298767089844 40.53833770751953 C 2.631080627441406 16.33684539794922 24.96630096435547 0 58.02657699584961 0 Z" stroke="none" fill="#039cdc"/>
      </g>
      <path id="Path_12" data-name="Path 12" d="M194.552,215.86l-87.76-47.3L0,174.506,27.792,43.755,142.62,0l79.725,85.109Z" transform="matrix(-0.978, 0.208, -0.208, -0.978, 262.365, 244.691)" fill="#0578a8" stroke="#3994ba" stroke-width="1"/>
    </g>
    <g id="Group_112" data-name="Group 112" transform="translate(105.214 129.627)">
      <g id="Ellipse_1" data-name="Ellipse 1" transform="translate(0 0)" fill="#e8be3b" stroke="#e8be3b" stroke-width="1">
        <ellipse cx="17.498" cy="14.217" rx="17.498" ry="14.217" stroke="none"/>
        <ellipse cx="17.498" cy="14.217" rx="16.998" ry="13.717" fill="none"/>
      </g>
      <g id="Path_28" data-name="Path 28" transform="translate(2.714 23.754)" fill="#e5bc3a">
        <path d="M 28.60910034179688 29.33864212036133 L 0.6315689086914062 29.33864212036133 L 7.218504905700684 1.395202398300171 L 21.194580078125 1.395202398300171 L 28.60910034179688 29.33864212036133 Z" stroke="none"/>
        <path d="M 7.614345550537109 1.89520263671875 L 1.263124465942383 28.83864212036133 L 27.9591236114502 28.83864212036133 L 20.80995178222656 1.89520263671875 L 7.614345550537109 1.89520263671875 M 6.822664260864258 0.89520263671875 L 21.57921409606934 0.89520263671875 L 29.25906562805176 29.83864212036133 L -5.7220458984375e-06 29.83864212036133 L 6.822664260864258 0.89520263671875 Z" stroke="none" fill="#e8be3b"/>
      </g>
    </g>
  </g>
</svg>
