<svg xmlns="http://www.w3.org/2000/svg" width="238.606" height="175.211" viewBox="0 0 238.606 175.211">
  <g id="Group_111" data-name="Group 111" transform="translate(-309.909 -592.915) rotate(1)">
    <g id="Group_109" data-name="Group 109" transform="translate(323.754 587.814)">
      <path id="Path_20" data-name="Path 20" d="M525.459,613.349l-2.129,2.879s-20.806-4.479-25.253-2.879a125.187,125.187,0,0,0-9.65,12.471l-2.205-6.352,8.589-9.588S501.706,605.058,525.459,613.349Z" transform="translate(-289.918 -583.508)" fill="#e8be3b"/>
      <g id="Rectangle_44" data-name="Rectangle 44" transform="matrix(0.966, -0.259, 0.259, 0.966, 162.195, 17.812)" fill="#0578a8" stroke="#fcce2c" stroke-width="3">
        <rect width="28.998" height="49.539" rx="14.499" stroke="none"/>
        <rect x="1.5" y="1.5" width="25.998" height="46.539" rx="12.999" fill="none"/>
      </g>
      <path id="Path_12" data-name="Path 12" d="M38.156,85.923l-21.611,22.9L6.623,89.693,0,76.934,5.74,23.012,28.13,0,43.9,32.006Z" transform="translate(14.291 76.935) rotate(-109)" fill="#0578a8" stroke="#fcce2c" stroke-width="3"/>
      <path id="Path_12-2" data-name="Path 12" d="M58.955,85.923,33.12,107.056,19.382,84.4,0,76.934,8.869,23.012,43.463,0,67.825,32.006Z" transform="matrix(-0.978, -0.208, 0.208, -0.978, 107.739, 170.543)" fill="#0578a8" stroke="#fcce2c" stroke-width="3"/>
      <path id="Path_12-3" data-name="Path 12" d="M58.205,48.249,30.616,64.986,0,47.538.5,15.556,27.135,0,58.154,20.729Z" transform="matrix(0.951, -0.309, 0.309, 0.951, 96.777, 33.125)" fill="#fcce2c" stroke="#fcce2c" stroke-width="3"/>
      <path id="Path_21" data-name="Path 21" d="M-.254-.613,13.311-6.607,50.133,36.546,45.861,46.835Z" transform="translate(67.907 73.762)" fill="#e8be3b"/>
      <path id="Path_22" data-name="Path 22" d="M1.419,11.653,9.545-6.475,55.1,40.512,48.953,54.237,3.364,13.379Z" transform="translate(54.965 90.705)" fill="#e8be3b"/>
      <path id="Path_26" data-name="Path 26" d="M8.145-6.475l45.129,25.2-27.3,11.351Z" transform="translate(39.45 131.785)" fill="#e8be3b"/>
    </g>
    <path id="Path_23" data-name="Path 23" d="M457,650.038l9.236.994s4.621,17.2,7.336,22.111a162.428,162.428,0,0,1,0,16.5s6.408-12.6,6.743-17.65c-.333.39-2.381-6.9-2.381-6.9s-2.439-11.2-8.309-18.758c-9.749-.53-9.183-1.161-9.183-1.161Z" transform="translate(27.75 11.944)" fill="#e8be3b"/>
    <path id="Path_24" data-name="Path 24" d="M457.005,650.177l9.823.915s4.962,17.983,7.878,23.118a165.373,165.373,0,0,1,0,17.248s6.88-13.177,7.24-18.454c-.358.408-2.6-7.086-2.557-7.218s-2.619-11.707-8.922-19.612c-10.468-.555-9.573,0-9.573,0Z" transform="translate(16.877 24.185)" fill="#e8be3b"/>
    <path id="Path_27" data-name="Path 27" d="M457.221,651.238h9.564s4.961,17.983,7.878,23.118a165.327,165.327,0,0,1,0,17.248s6.881-13.177,7.24-18.454c-.357.408-2.6-7.086-2.556-7.217s-2.619-11.707-8.922-19.612c-10.469-.555-10.866-1.1-10.866-1.1Z" transform="translate(-10.869 46.996)" fill="#e8be3b"/>
  </g>
</svg>
