<svg xmlns="http://www.w3.org/2000/svg" width="107.315" height="98.256" viewBox="0 0 107.315 98.256">
  <g id="Group_384" data-name="Group 384" transform="translate(-273.975 -315.467)">
    <g id="Group_329" data-name="Group 329" transform="translate(272.261 344.887)">
      <g id="Group_328" data-name="Group 328" transform="translate(-3 -30)">
        <g id="Rectangle_101" data-name="Rectangle 101" transform="translate(37.775 25.347)">
          <path id="Path_36" data-name="Path 36" d="M310.384,381.308h49.968a5.5,5.5,0,0,1,5.5,5.5h0a5.5,5.5,0,0,1-5.5,5.5H310.384a5.5,5.5,0,0,1-5.5-5.5h0A5.5,5.5,0,0,1,310.384,381.308Z" transform="translate(-304.887 -381.308)" fill="#fffcfc" stroke="#0578a8" stroke-miterlimit="10" stroke-width="1"/>
        </g>
        <g id="Rectangle_103" data-name="Rectangle 103" transform="translate(44.094 17.001)">
          <path id="Path_38" data-name="Path 38" d="M314.51,373.878h38.974a4,4,0,0,1,4,4h0a4,4,0,0,1-4,4H314.51a4,4,0,0,1-4-4h0A4,4,0,0,1,314.51,373.878Z" transform="translate(-310.512 -373.878)" fill="#fcce2c" stroke="#0578a8" stroke-width="1"/>
        </g>
        <g id="Rectangle_105" data-name="Rectangle 105" transform="translate(52.089 12.327)">
          <path id="Path_40" data-name="Path 40" d="M320.127,369.718h25.984a2.5,2.5,0,0,1,2.5,2.5h0a2.5,2.5,0,0,1-2.5,2.5H320.127a2.5,2.5,0,0,1-2.5-2.5h0A2.5,2.5,0,0,1,320.127,369.718Z" transform="translate(-317.629 -369.718)" fill="#fffcfc" stroke="#0578a8" stroke-miterlimit="10" stroke-width="1"/>
        </g>
        <g id="Rectangle_107" data-name="Rectangle 107" transform="translate(33.778 35.341)">
          <path id="Path_43" data-name="Path 43" d="M306.326,390.2h59.96a5,5,0,0,1,5,5h0a5,5,0,0,1-5,5h-59.96a5,5,0,0,1-5-5h0A5,5,0,0,1,306.326,390.2Z" transform="translate(-301.329 -390.204)" fill="#fcce2c" stroke="#0578a8" stroke-width="1"/>
        </g>
        <g id="Rectangle_108" data-name="Rectangle 108" transform="translate(24.783 43.336)">
          <path id="Path_44" data-name="Path 44" d="M303.815,397.321h63.958c5.8,0,10.493,6.148,10.493,13.732h0c0,7.584-4.7,13.732-10.493,13.732H303.815c-5.8,0-10.493-6.148-10.493-13.732h0C293.322,403.469,298.02,397.321,303.815,397.321Z" transform="translate(-293.322 -397.321)" fill="#fffcfc" stroke="#0578a8" stroke-miterlimit="10" stroke-width="0.25"/>
          <path id="Path_45" data-name="Path 45" d="M303.761,397.766h63.958c5.519,0,9.994,5.924,9.994,13.232h0c0,7.307-4.474,13.232-9.994,13.232H303.761c-5.519,0-9.994-5.924-9.994-13.232h0C293.767,403.69,298.241,397.766,303.761,397.766Z" transform="translate(-293.267 -397.266)" fill="#fffcfc" stroke="#0578a8" stroke-width="1"/>
        </g>
        <g id="Group_16" data-name="Group 16" transform="matrix(1, -0.017, 0.017, 1, 4.888, 1.983)">
          <g id="Group_14" data-name="Group 14">
            <path id="Path_4" data-name="Path 4" d="M14.654,0,32.936,11.109l2.327,13.047,1.556,8.705L22.161,42.743,3.374,31.051,0,9.888Z" transform="translate(9.018 0)" fill="#fcce2c" stroke="#0578a8" stroke-width="1"/>
            <path id="Path_9" data-name="Path 9" d="M30.537,4.962l6.811,12.064-7.218,4.45-4.816,2.97L6.808,19.483,0,7.011,12.033,0Z" transform="translate(0 29.069)" fill="#fcce2c" stroke="#0578a8" stroke-miterlimit="4.001" stroke-width="1"/>
            <path id="Path_12" data-name="Path 12" d="M19.921,30.149,8.639,38.185,3.458,31.473,0,26.995,3,8.075,14.69,0l8.232,11.23Z" transform="translate(37.379 2.449)" fill="#fcce2c" stroke="#0578a8" stroke-width="1"/>
          </g>
          <path id="Path_11" data-name="Path 11" d="M.1,0,.074,3.353.066,4.47,0,13.411" transform="translate(41.352 47.116)" fill="#fcce2c" stroke="#0578a8" stroke-width="2.3"/>
          <path id="Line_5" data-name="Line 5" d="M0,0,11.535,4.42" transform="translate(45.882 43.236)" fill="none" stroke="#0578a8" stroke-width="2.3"/>
          <rect id="Rectangle_8" data-name="Rectangle 8" width="25.773" height="13.296" rx="6.648" transform="translate(27.388 43.726) rotate(-36.989)" fill="#0578a8" stroke="#0578a8" stroke-width="1"/>
        </g>
        <g id="Rectangle_103-2" data-name="Rectangle 103" transform="translate(45.341 90.341)">
          <path id="Path_38-2" data-name="Path 38" d="M314.085,381.873h34.835a3.8,3.8,0,0,0,3.572-4h0a3.8,3.8,0,0,0-3.572-4H314.085a3.8,3.8,0,0,0-3.573,4h0A3.8,3.8,0,0,0,314.085,381.873Z" transform="translate(-310.512 -373.878)" fill="#fcce2c" stroke="#0578a8" stroke-width="1"/>
        </g>
        <g id="Rectangle_107-2" data-name="Rectangle 107" transform="translate(29.421 70.003)">
          <path id="Path_43-2" data-name="Path 43" d="M306.627,400.2H370.2a5.154,5.154,0,0,0,5.3-5h0a5.153,5.153,0,0,0-5.3-5H306.627a5.153,5.153,0,0,0-5.3,5h0A5.154,5.154,0,0,0,306.627,400.2Z" transform="translate(-301.329 -390.204)" fill="#fcce2c" stroke="#0578a8" stroke-width="1"/>
        </g>
        <g id="Rectangle_107-3" data-name="Rectangle 107" transform="translate(37.775 80.003)">
          <path id="Path_43-3" data-name="Path 43" d="M305.434,400.2h49.257c2.267,0,4.1-2.238,4.1-5h0c0-2.76-1.837-5-4.1-5H305.434c-2.267,0-4.1,2.237-4.1,5h0C301.329,397.96,303.166,400.2,305.434,400.2Z" transform="translate(-301.329 -390.204)" fill="#fffcfc" stroke="#0578a8" stroke-width="1"/>
        </g>
      </g>
    </g>
    <text id="Survey_" data-name="Survey " transform="translate(304.29 366.818)" fill="#0578a8" font-size="15" font-family="Inter" font-weight="700"><tspan x="0" y="15">SURVEY </tspan></text>
  </g>
</svg>
