<svg xmlns="http://www.w3.org/2000/svg" width="255.289" height="239.84" viewBox="0 0 255.289 239.84">
  <g id="Group_210" data-name="Group 210" transform="translate(0.504)">
    <g id="Group_103" data-name="Group 103" transform="translate(18.947 0)">
      <g id="Rectangle_38" data-name="Rectangle 38" transform="translate(0)" fill="#045fa2" stroke="#000" stroke-width="2">
        <rect width="208.346" height="239.84" stroke="none"/>
        <rect x="1" y="1" width="206.346" height="237.84" fill="none"/>
      </g>
      <g id="Rectangle_39" data-name="Rectangle 39" transform="translate(36.339 25.438)" fill="#fcce2c" stroke="#000" stroke-width="2">
        <rect width="128.399" height="18.17" stroke="none"/>
        <rect x="1" y="1" width="126.399" height="16.17" fill="none"/>
      </g>
      <line id="Line_19" data-name="Line 19" x2="73.999" transform="translate(38.049 75.976)" fill="none" stroke="#000" stroke-width="2"/>
      <line id="Line_20" data-name="Line 20" x2="73.999" transform="translate(38.049 112.976)" fill="none" stroke="#000" stroke-width="2"/>
      <line id="Line_21" data-name="Line 21" x2="73.999" transform="translate(38.049 153.339)" fill="none" stroke="#000" stroke-width="2"/>
      <line id="Line_22" data-name="Line 22" x2="73.999" transform="translate(38.049 190.339)" fill="none" stroke="#000" stroke-width="2"/>
      <g id="Rectangle_40" data-name="Rectangle 40" transform="translate(130.822 52.087)" fill="#fcce2c" stroke="#000" stroke-width="2">
        <rect width="33.917" height="36.339" stroke="none"/>
        <rect x="1" y="1" width="31.917" height="34.339" fill="none"/>
      </g>
      <g id="Rectangle_41" data-name="Rectangle 41" transform="translate(145.358 94.483)" fill="#fcce2c" stroke="#000" stroke-width="2">
        <rect width="33.917" height="31.494" stroke="none"/>
        <rect x="1" y="1" width="31.917" height="29.494" fill="none"/>
      </g>
      <g id="Rectangle_42" data-name="Rectangle 42" transform="translate(130.822 136.879)" fill="#fcce2c" stroke="#000" stroke-width="2">
        <rect width="33.917" height="31.494" stroke="none"/>
        <rect x="1" y="1" width="31.917" height="29.494" fill="none"/>
      </g>
      <g id="Rectangle_43" data-name="Rectangle 43" transform="translate(130.822 172.007)" fill="#fcce2c" stroke="#000" stroke-width="2">
        <rect width="33.917" height="36.339" stroke="none"/>
        <rect x="1" y="1" width="31.917" height="34.339" fill="none"/>
      </g>
    </g>
    <g id="Group_102" data-name="Group 102" transform="translate(0 3.142)">
      <path id="Path_18" data-name="Path 18" d="M607.762,537.846s20.1,45.895,39.519,43.23,37.538,3.407,34.767,25.971c-14.953,19.171-17.3,21.473-17.3,21.473s-32.794,12.813-50.2-21.473S607.762,537.846,607.762,537.846Z" transform="translate(-604.555 -537.846)" fill="#fcce2c" stroke="#000" stroke-width="1"/>
      <g id="Path_19" data-name="Path 19" transform="translate(81.7 71.529) rotate(38)">
        <path d="M 0.5000033378601074 25.56404876708984 L 0.5000033378601074 0.5231556296348572 L 219.1322174072266 10.4247579574585 L 218.7435455322266 22.75325775146484 L 0.5000033378601074 25.56404876708984 Z" stroke="none"/>
        <path d="M 1 1.046297073364258 L 1 25.05758094787598 L 218.2588348388672 22.25947189331055 L 218.6169281005859 10.90191841125488 L 1 1.046297073364258 M 0 -1.33514404296875e-05 L 219.6475067138672 9.94757080078125 L 219.2281951904297 23.2470703125 L 0 26.07054328918457 L 0 -1.33514404296875e-05 Z" stroke="none"/>
      </g>
    </g>
  </g>
</svg>
