<svg id="Group_175" data-name="Group 175" xmlns="http://www.w3.org/2000/svg" width="279.517" height="247.956" viewBox="0 0 279.517 247.956">
  <g id="Path_15" data-name="Path 15" transform="translate(0 0)" fill="#045fa2">
    <path d="M 276.475830078125 245.6934967041016 C 269.4667663574219 243.8794860839844 247.2943878173828 237.8739166259766 177.2789001464844 218.1212005615234 L 177.0791778564453 218.0648498535156 L 176.8716430664062 218.0648498535156 L 54.89121246337891 218.0648498535156 C 47.68278884887695 218.0648498535156 40.69078826904297 216.6533966064453 34.10940551757812 213.8697357177734 C 27.75179100036621 211.1806945800781 22.04179000854492 207.3307800292969 17.13794326782227 202.4269256591797 C 12.23409748077393 197.5230865478516 8.384174346923828 191.8130798339844 5.695136070251465 185.4554748535156 C 2.911482334136963 178.8740844726562 1.500020861625671 171.882080078125 1.500020861625671 164.6736602783203 L 1.500020861625671 54.89120101928711 C 1.500020861625671 47.68277740478516 2.911482334136963 40.69077682495117 5.695136070251465 34.10939407348633 C 8.384174346923828 27.75177764892578 12.23409748077393 22.04177665710449 17.13794326782227 17.13793182373047 C 22.04179000854492 12.23408508300781 27.75179100036621 8.384161949157715 34.10940551757812 5.695123672485352 C 40.69078826904297 2.911469697952271 47.68278884887695 1.500008106231689 54.89121246337891 1.500008106231689 L 176.8716430664062 1.500008106231689 C 184.0800628662109 1.500008106231689 191.0720520019531 2.911469697952271 197.6534423828125 5.695123672485352 C 204.0110626220703 8.384161949157715 209.7210540771484 12.23408508300781 214.6249084472656 17.13793182373047 C 219.5287475585938 22.04177665710449 223.3786773681641 27.75177764892578 226.0677185058594 34.10939407348633 C 228.8513641357422 40.69077682495117 230.2628326416016 47.68277740478516 230.2628326416016 54.89120101928711 L 230.2628326416016 164.6736602783203 L 230.2628326416016 165.2657318115234 L 230.5887298583984 165.6142730712891 C 232.20263671875 168.1574249267578 260.2943115234375 217.3276062011719 276.475830078125 245.6934967041016 Z" stroke="none"/>
    <path d="M 54.89122009277344 3.000015258789062 C 47.8846435546875 3.000015258789062 41.08921813964844 4.37158203125 34.69371032714844 7.076629638671875 C 28.514892578125 9.690048217773438 22.96514892578125 13.4320068359375 18.19854736328125 18.19857788085938 C 13.4320068359375 22.96516418457031 9.6900634765625 28.51493835449219 7.076629638671875 34.69374084472656 C 4.371551513671875 41.08920288085938 2.999969482421875 47.88462829589844 2.999969482421875 54.89120483398438 L 2.999969482421875 164.6736602783203 C 2.999969482421875 171.6802368164062 4.371551513671875 178.4756622314453 7.076629638671875 184.8711242675781 C 9.6900634765625 191.0499267578125 13.4320068359375 196.5997009277344 18.19854736328125 201.3662719726562 C 22.96514892578125 206.1328582763672 28.514892578125 209.8748168945312 34.69371032714844 212.4882354736328 C 41.08921813964844 215.1932678222656 47.8846435546875 216.5648498535156 54.89122009277344 216.5648498535156 L 176.8716430664062 216.5648498535156 L 177.2867126464844 216.5648498535156 L 177.6862182617188 216.6775512695312 C 238.9970703125 233.9745178222656 263.5633850097656 240.7133178710938 273.402587890625 243.3339233398438 C 259.1897583007812 218.42529296875 231.6097717285156 170.1465759277344 229.3915557861328 166.5301513671875 L 228.7628326416016 165.8578186035156 L 228.7628326416016 164.6736602783203 L 228.7628326416016 54.89120483398438 C 228.7628326416016 47.88462829589844 227.3912506103516 41.08920288085938 224.6862182617188 34.69374084472656 C 222.0727844238281 28.51493835449219 218.3308258056641 22.96516418457031 213.5642547607422 18.19857788085938 C 208.7976684570312 13.4320068359375 203.2478942871094 9.690048217773438 197.069091796875 7.076629638671875 C 190.6736450195312 4.37158203125 183.8782043457031 3.000015258789062 176.8716430664062 3.000015258789062 L 54.89122009277344 3.000015258789062 M 54.89122009277344 1.52587890625e-05 L 176.8716430664062 1.52587890625e-05 C 207.1872100830078 1.52587890625e-05 231.7628326416016 24.57562255859375 231.7628326416016 54.89120483398438 L 231.7628326416016 164.6736602783203 C 232.353759765625 165.3055877685547 279.4768981933594 247.9273986816406 279.4768981933594 247.9273986816406 C 279.4768981933594 247.9273986816406 279.5497436523438 247.9561920166016 279.4984436035156 247.9561920166016 C 279.1171875 247.9561920166016 271.8764343261719 246.3675384521484 176.8716430664062 219.5648498535156 L 54.89122009277344 219.5648498535156 C 24.57562255859375 219.5648498535156 -3.0517578125e-05 194.9892425537109 -3.0517578125e-05 164.6736602783203 L -3.0517578125e-05 54.89120483398438 C -3.0517578125e-05 24.57562255859375 24.57562255859375 1.52587890625e-05 54.89122009277344 1.52587890625e-05 Z" stroke="none"/>
  </g>
  <path id="Path_16" data-name="Path 16" d="M10.472,0" transform="translate(214.79 58.141)" fill="none" stroke="#000" stroke-width="3"/>
  <g id="Rectangle_55" data-name="Rectangle 55" transform="translate(51.486 50.483)" fill="#fcce2c" stroke="#000" stroke-width="3">
    <rect width="134" height="107" rx="24" stroke="none"/>
    <rect x="1.5" y="1.5" width="131" height="104" rx="22.5" fill="none"/>
  </g>
  <path id="Polygon_4" data-name="Polygon 4" d="M24.264,0,48.529,59.621H0Z" transform="translate(151.774 81.571) rotate(90)" fill="#cf2600"/>
</svg>
