<svg id="Group_175" data-name="Group 175" xmlns="http://www.w3.org/2000/svg" width="324.024" height="287.438" viewBox="0 0 324.024 287.438">
  <g id="Path_15" data-name="Path 15" transform="translate(0 0)" fill="#1c84b0">
    <path d="M 320.9865112304688 285.1875915527344 C 313.4707336425781 283.2567749023438 288.4633178710938 276.50439453125 205.4422302246094 253.08251953125 L 205.2424926757812 253.0261840820312 L 205.0349426269531 253.0261840820312 L 63.63156890869141 253.0261840820312 C 55.24319458007812 253.0261840820312 47.10652923583984 251.3836517333984 39.44761276245117 248.1441955566406 C 35.76640319824219 246.5871887207031 32.21573638916016 244.6599426269531 28.89423751831055 242.4159851074219 C 25.60394477844238 240.1930999755859 22.50986099243164 237.6402282714844 19.69790267944336 234.8283081054688 C 16.88594436645508 232.016357421875 14.33306980133057 228.9222259521484 12.11019515991211 225.6319427490234 C 9.866278648376465 222.3104858398438 7.938986778259277 218.7598571777344 6.381986618041992 215.07861328125 C 3.142528533935547 207.4196929931641 1.49998676776886 199.2830657958984 1.49998676776886 190.8946838378906 L 1.49998676776886 63.63156509399414 C 1.49998676776886 55.24319076538086 3.142528533935547 47.10652160644531 6.381986618041992 39.44760513305664 C 7.938986778259277 35.76639938354492 9.866278648376465 32.21573257446289 12.11019515991211 28.89427375793457 C 14.33306980133057 25.60398101806641 16.88594436645508 22.50985717773438 19.69790267944336 19.69794082641602 C 22.50986099243164 16.88598251342773 25.60394477844238 14.33310699462891 28.89427757263184 12.11023139953613 C 32.21573638916016 9.866272926330566 35.76640319824219 7.939023494720459 39.44761276245117 6.382023334503174 C 47.10652923583984 3.142565011978149 55.24319458007812 1.500023365020752 63.63156890869141 1.500023365020752 L 205.0349426269531 1.500023365020752 C 213.4233245849609 1.500023365020752 221.5599822998047 3.142565011978149 229.2189025878906 6.382023334503174 C 232.9001159667969 7.939023494720459 236.4507751464844 9.866272926330566 239.7722320556641 12.11023139953613 C 243.0625762939453 14.33310699462891 246.1566467285156 16.88598251342773 248.9686126708984 19.69794082641602 C 251.7805633544922 22.50985717773438 254.3334503173828 25.60398101806641 256.5563049316406 28.89427375793457 C 258.8002319335938 32.21573257446289 260.7275390625 35.76639938354492 262.2845153808594 39.44760513305664 C 265.5239868164062 47.10652160644531 267.1665344238281 55.24319076538086 267.1665344238281 63.63156509399414 L 267.1665344238281 190.8946838378906 L 267.1665344238281 191.4867706298828 L 267.4952697753906 191.8383178710938 C 269.2528381347656 194.5839691162109 302.2256164550781 252.2992401123047 320.9865112304688 285.1875915527344 Z" stroke="none"/>
    <path d="M 63.63150024414062 2.999969482421875 C 55.44500732421875 2.999969482421875 47.50497436523438 4.6026611328125 40.03192138671875 7.76348876953125 C 36.43991088867188 9.282806396484375 32.97518920898438 11.16342163085938 29.73397827148438 13.35311889648438 C 26.52279663085938 15.52255249023438 23.50302124023438 18.01409912109375 20.758544921875 20.75857543945312 C 18.01416015625 23.50302124023438 15.52261352539062 26.52279663085938 13.3531494140625 29.73397827148438 C 11.16342163085938 32.97518920898438 9.28277587890625 36.43992614746094 7.763519287109375 40.03192138671875 C 4.602691650390625 47.50497436523438 3 55.44502258300781 3 63.63156127929688 L 3 190.8946990966797 C 3 199.0812377929688 4.602691650390625 207.0213012695312 7.763519287109375 214.4942932128906 C 9.28277587890625 218.0863342285156 11.16342163085938 221.5510559082031 13.3531494140625 224.792236328125 C 15.52261352539062 228.0034790039062 18.01416015625 231.023193359375 20.758544921875 233.7676544189453 C 23.50302124023438 236.5121154785156 26.52279663085938 239.003662109375 29.73397827148438 241.1730651855469 C 32.97518920898438 243.36279296875 36.43991088867188 245.2434234619141 40.03192138671875 246.7626953125 C 47.50497436523438 249.9235229492188 55.44500732421875 251.5261993408203 63.63150024414062 251.5261993408203 L 205.0349731445312 251.5261993408203 L 205.4500579833984 251.5261993408203 L 205.8495178222656 251.6388854980469 C 279.2851257324219 272.3564758300781 307.262939453125 280.0122680664062 317.9171142578125 282.8346557617188 C 301.5608825683594 254.1680908203125 268.7262268066406 196.687744140625 266.2996826171875 192.7559814453125 L 265.66650390625 192.0788879394531 L 265.66650390625 190.8946990966797 L 265.66650390625 63.63156127929688 C 265.66650390625 55.44502258300781 264.0638427734375 47.50497436523438 260.9030151367188 40.03192138671875 C 259.3837280273438 36.43992614746094 257.5031127929688 32.97518920898438 255.3133697509766 29.73397827148438 C 253.1439208984375 26.52279663085938 250.6523742675781 23.50302124023438 247.9079284667969 20.75857543945312 C 245.1635131835938 18.01409912109375 242.1437377929688 15.52255249023438 238.9325561523438 13.35311889648438 C 235.6913299560547 11.16342163085938 232.2265930175781 9.282806396484375 228.6345520019531 7.76348876953125 C 221.1615600585938 4.6026611328125 213.2215118408203 2.999969482421875 205.0349731445312 2.999969482421875 L 63.63150024414062 2.999969482421875 M 63.63150024414062 -3.0517578125e-05 L 205.0349731445312 -3.0517578125e-05 C 240.1776885986328 -3.0517578125e-05 268.66650390625 28.48883056640625 268.66650390625 63.63156127929688 L 268.66650390625 190.8946990966797 C 269.3515014648438 191.627197265625 323.9780883789062 287.4048767089844 323.9780883789062 287.4048767089844 C 323.9780883789062 287.4048767089844 324.0625305175781 287.4382629394531 324.0030822753906 287.4382629394531 C 323.5611267089844 287.4382629394531 315.1674194335938 285.5966491699219 205.0349731445312 254.5261993408203 L 63.63150024414062 254.5261993408203 C 28.48883056640625 254.5261993408203 0 226.0374298095703 0 190.8946990966797 L 0 63.63156127929688 C 0 28.48883056640625 28.48883056640625 -3.0517578125e-05 63.63150024414062 -3.0517578125e-05 Z" stroke="none"/>
  </g>
  <path id="Path_16" data-name="Path 16" d="M10.472,0" transform="translate(250.659 67.398)" fill="none" stroke="#000" stroke-width="3"/>
  <g id="Rectangle_55" data-name="Rectangle 55" transform="translate(66.387 73.338)" fill="#fcce2c" stroke="#000" stroke-width="3">
    <rect width="140" height="99" rx="23" stroke="none"/>
    <rect x="1.5" y="1.5" width="137" height="96" rx="21.5" fill="none"/>
  </g>
  <g id="Polygon_4" data-name="Polygon 4" transform="translate(175.941 94.559) rotate(90)" fill="#cf2600">
    <path d="M 55.51272201538086 68.61398315429688 L 0.7433170676231384 68.61398315429688 L 28.12801933288574 1.3264240026474 L 55.51272201538086 68.61398315429688 Z" stroke="none"/>
    <path d="M 28.12801933288574 2.652824401855469 L 1.486625671386719 68.11398315429688 L 54.76941299438477 68.11398315429688 L 28.12801933288574 2.652824401855469 M 28.12801933288574 0 L 56.25603866577148 69.11398315429688 L 0 69.11398315429688 L 28.12801933288574 0 Z" stroke="none" fill="#050505"/>
  </g>
</svg>
