<svg xmlns="http://www.w3.org/2000/svg" width="64.969" height="64.969" viewBox="0 0 64.969 64.969">
  <g id="iconfinder_facebook-logo_1269914" transform="translate(-8 -10)">
    <g id="Group_123" data-name="Group 123" transform="translate(8 10)">
      <path id="Facebook__x28_alt_x29_" d="M64.969,10.828A11.2,11.2,0,0,0,54.141,0H10.828A11.2,11.2,0,0,0,0,10.828V54.141A11.2,11.2,0,0,0,10.828,64.969H32.484V40.425H24.544V29.6h7.941V25.41c0-7.291,5.486-13.86,12.2-13.86h8.735V22.378H44.684c-.938,0-2.093,1.155-2.093,2.888V29.6H53.419V40.425H42.591V64.969h11.55A11.2,11.2,0,0,0,64.969,54.141Z" fill="#0077b7"/>
    </g>
  </g>
</svg>
