<svg id="iconfinder_facebook-logo_1269914" xmlns="http://www.w3.org/2000/svg" width="81.293" height="81.293" viewBox="0 0 81.293 81.293">
  <g id="Group_123" data-name="Group 123" transform="translate(0 0)">
    <path id="Facebook__x28_alt_x29_" d="M81.293,13.549A14.019,14.019,0,0,0,67.744,0h-54.2A14.019,14.019,0,0,0,0,13.549v54.2A14.019,14.019,0,0,0,13.549,81.293h27.1V50.582H30.711V37.033h9.936V31.795c0-9.123,6.865-17.342,15.265-17.342H66.841V28H55.911c-1.174,0-2.619,1.445-2.619,3.613v5.42H66.841V50.582H53.292V81.293H67.744A14.019,14.019,0,0,0,81.293,67.744Z" fill="#e6cb53"/>
  </g>
</svg>
