<svg xmlns="http://www.w3.org/2000/svg" width="99" height="99" viewBox="0 0 99 99">
  <g id="iconfinder_facebook-logo_1269914" transform="translate(-8 -10)">
    <g id="Group_123" data-name="Group 123" transform="translate(8 10)">
      <path id="Facebook__x28_alt_x29_" d="M99,16.5C99,7.81,91.19,0,82.5,0h-66C7.81,0,0,7.81,0,16.5v66C0,91.19,7.81,99,16.5,99h33V61.6H37.4V45.1H49.5V38.72c0-11.11,8.36-21.12,18.59-21.12H81.4V34.1H68.09c-1.43,0-3.19,1.76-3.19,4.4v6.6H81.4V61.6H64.9V99H82.5C91.19,99,99,91.19,99,82.5Z" fill="#e6cb53"/>
    </g>
  </g>
</svg>
