<svg xmlns="http://www.w3.org/2000/svg" width="80.682" height="80.664" viewBox="0 0 80.682 80.664">
  <path id="instagram" d="M40.275,51.476A20.681,20.681,0,1,0,60.956,72.157,20.648,20.648,0,0,0,40.275,51.476Zm0,34.127A13.445,13.445,0,1,1,53.72,72.157,13.47,13.47,0,0,1,40.275,85.6ZM66.626,50.63A4.824,4.824,0,1,1,61.8,45.806,4.813,4.813,0,0,1,66.626,50.63Zm13.7,4.9c-.306-6.462-1.782-12.186-6.516-16.9-4.716-4.716-10.44-6.192-16.9-6.516-6.66-.378-26.621-.378-33.281,0-6.444.306-12.167,1.782-16.9,6.5S.532,49.046.208,55.508c-.378,6.66-.378,26.621,0,33.281.306,6.462,1.782,12.186,6.516,16.9s10.44,6.192,16.9,6.516c6.66.378,26.621.378,33.281,0,6.462-.306,12.185-1.782,16.9-6.516,4.716-4.716,6.192-10.44,6.516-16.9C80.7,82.128,80.7,62.185,80.323,55.526Zm-8.6,40.408a13.612,13.612,0,0,1-7.668,7.668c-5.31,2.106-17.909,1.62-23.777,1.62S21.79,105.69,16.5,103.6A13.612,13.612,0,0,1,8.83,95.934c-2.106-5.31-1.62-17.909-1.62-23.777S6.742,53.672,8.83,48.38A13.612,13.612,0,0,1,16.5,40.712c5.31-2.106,17.909-1.62,23.777-1.62s18.485-.468,23.777,1.62A13.613,13.613,0,0,1,71.72,48.38c2.106,5.31,1.62,17.909,1.62,23.777S73.825,90.642,71.72,95.934Z" transform="translate(0.075 -31.825)" fill="#fcce2c"/>
</svg>
