<svg xmlns="http://www.w3.org/2000/svg" width="331" height="194" viewBox="0 0 331 194">
  <g id="Group_212" data-name="Group 212" transform="translate(-0.416 0.111)">
    <g id="Rectangle_30" data-name="Rectangle 30" transform="translate(0.416 -0.111)" stroke="#707070" stroke-width="1">
      <rect width="317" height="181" rx="8" stroke="none"/>
      <rect x="0.5" y="0.5" width="316" height="180" rx="7.5" fill="none"/>
    </g>
    <g id="Rectangle_31" data-name="Rectangle 31" transform="translate(13.416 12.889)" fill="#fffcfc" stroke="#707070" stroke-width="1">
      <rect width="293" height="168" rx="8" stroke="none"/>
      <rect x="0.5" y="0.5" width="292" height="167" rx="7.5" fill="none"/>
    </g>
    <g id="Rectangle_29" data-name="Rectangle 29" transform="translate(12.416 180.889)" stroke="#707070" stroke-width="1">
      <rect width="319" height="13" rx="5" stroke="none"/>
      <rect x="0.5" y="0.5" width="318" height="12" rx="4.5" fill="none"/>
    </g>
    <line id="Line_9" data-name="Line 9" x2="112.439" transform="translate(45.958 136.579)" fill="none" stroke="#000" stroke-width="3"/>
    <g id="Rectangle_32" data-name="Rectangle 32" transform="translate(44.416 26.889)" fill="#fcce2c" stroke="#707070" stroke-width="1">
      <rect width="217" height="62" stroke="none"/>
      <rect x="0.5" y="0.5" width="216" height="61" fill="none"/>
    </g>
    <line id="Line_10" data-name="Line 10" x2="112.439" transform="translate(45.958 112.485)" fill="none" stroke="#000" stroke-width="3"/>
    <line id="Line_13" data-name="Line 13" x2="112.439" transform="translate(45.958 160.673)" fill="none" stroke="#000" stroke-width="3"/>
    <g id="Rectangle_33" data-name="Rectangle 33" transform="translate(163.416 100.889)" fill="#045fa2" stroke="#000" stroke-width="1">
      <rect width="46" height="31" stroke="none"/>
      <rect x="0.5" y="0.5" width="45" height="30" fill="none"/>
    </g>
    <g id="Rectangle_36" data-name="Rectangle 36" transform="translate(163.416 136.889)" fill="#045fa2" stroke="#000" stroke-width="1">
      <rect width="46" height="36" stroke="none"/>
      <rect x="0.5" y="0.5" width="45" height="35" fill="none"/>
    </g>
    <g id="Rectangle_35" data-name="Rectangle 35" transform="translate(216.416 100.889)" fill="#045fa2" stroke="#000" stroke-width="1">
      <rect width="45" height="31" stroke="none"/>
      <rect x="0.5" y="0.5" width="44" height="30" fill="none"/>
    </g>
    <g id="Rectangle_37" data-name="Rectangle 37" transform="translate(216.416 136.889)" fill="#045fa2" stroke="#000" stroke-width="1">
      <rect width="45" height="36" stroke="none"/>
      <rect x="0.5" y="0.5" width="44" height="35" fill="none"/>
    </g>
    <path id="Path_13" data-name="Path 13" d="M9.577,0,0,13.09,34.931,0" transform="translate(172.854 112.309) rotate(-9)" fill="none" stroke="#000" stroke-width="3"/>
    <g id="Group_117" data-name="Group 117" transform="translate(243.48 125.872) rotate(-42)">
      <line id="Line_18" data-name="Line 18" y2="18.12" transform="translate(11.325 20.385)" fill="none" stroke="#000" stroke-width="2"/>
      <g id="Polygon_3" data-name="Polygon 3" transform="translate(0 0)">
        <path d="M 21.0315055847168 21.64953994750977 L 1.618035912513733 21.64953994750977 L 11.3247709274292 2.236069917678833 L 21.0315055847168 21.64953994750977 Z" stroke="none"/>
        <path d="M 11.3247709274292 4.472129821777344 L 3.236066818237305 20.64953994750977 L 19.41347503662109 20.64953994750977 L 11.3247709274292 4.472129821777344 M 11.3247709274292 0 L 22.6495418548584 22.64953994750977 L 0 22.64953994750977 L 11.3247709274292 0 Z" stroke="none"/>
      </g>
    </g>
  </g>
</svg>
