<svg xmlns="http://www.w3.org/2000/svg" width="100.692" height="81.781" viewBox="0 0 100.692 81.781">
  <path id="twitter" d="M90.342,68.463c.064.894.064,1.789.064,2.684,0,27.281-20.765,58.716-58.716,58.716A58.318,58.318,0,0,1,0,120.6a42.689,42.689,0,0,0,4.983.255,41.329,41.329,0,0,0,25.62-8.817,20.673,20.673,0,0,1-19.3-14.312,26.021,26.021,0,0,0,3.9.319,21.825,21.825,0,0,0,5.431-.7A20.64,20.64,0,0,1,4.089,77.089v-.255a20.784,20.784,0,0,0,9.328,2.619,20.668,20.668,0,0,1-6.389-27.6,58.66,58.66,0,0,0,42.551,21.6,23.3,23.3,0,0,1-.511-4.728A20.657,20.657,0,0,1,84.783,54.6a40.63,40.63,0,0,0,13.1-4.984,20.581,20.581,0,0,1-9.073,11.373,41.371,41.371,0,0,0,11.884-3.194A44.361,44.361,0,0,1,90.342,68.463Z" transform="translate(0 -48.082)" fill="#e6cb53"/>
</svg>
